# xmcd CD database file
#
# Track frame offsets:
#	150
#	14402
#	38559
#	55012
#	67633
#	82733
#	104672
#	120460
#	137184
#	151739
#	167190
#	180790
#	196069
#	210968
#	226441
#	242000
#	267169
#	278482
#	296184
#	320943
#
# Disc length: 4551 seconds
#
# Revision: 0
# Processed by: cddbd v1.5.2PL0 Copyright (c) Steve Scherf et al.
# Submitted via: CDex 1.79
#
DISCID=0611c514
DTITLE=100 Hits Jazz - Cd 3 Be Bop-Modern Jaz
DYEAR=1900
DGENRE=Jazz
TTITLE0=Lee Konitz-Retrospection
TTITLE1=Miles Davis-Round About Midnight
TTITLE2=Gerry Mulligan-Walking Shoes
TTITLE3=Modern Jazz Quartet-Bluesology
TTITLE4=Sonny Rollins-In a Sentimental Mood
TTITLE5=Chet Baker-Stella By Starlight
TTITLE6=Art Blakey-If I Had You
TTITLE7=Clifford Brown-Easy Living
TTITLE8=Jay Jay Johnson-Bag's Groove
TTITLE9=Thelonius Monk-Smoke Gets In Your Eyes
TTITLE10=Art Pepper-Over The Rainbow
TTITLE11=Phil woods-Love Song
TTITLE12=Charlie Mingus-Stormy Weather
TTITLE13=Mc Toy Tyner-Beautiful Love
TTITLE14=Barney Kessel-Love Is Here To Stay
TTITLE15=Buddy Rich-Giant Steps
TTITLE16=Dizzy Gillespie-Dizzy's Blues
TTITLE17=Jimmy Smith-I Got A Woman
TTITLE18=Wynton Marsalis-One By One
TTITLE19=Larry Coryell-Misty
EXTD=
EXTT0=
EXTT1=
EXTT2=
EXTT3=
EXTT4=
EXTT5=
EXTT6=
EXTT7=
EXTT8=
EXTT9=
EXTT10=
EXTT11=
EXTT12=
EXTT13=
EXTT14=
EXTT15=
EXTT16=
EXTT17=
EXTT18=
EXTT19=
PLAYORDER=
